<svg version="1.1" id="Layer_1" xmlns="http://www.w3.org/2000/svg" xmlns:xlink="http://www.w3.org/1999/xlink" x="0px" y="0px"
	 viewBox="0 0 118 118" style="enable-background:new 0 0 118 118;" xml:space="preserve">
    <path fill="#FEAD00" d="M38,118l80,0.2V38C118,82.2,82.2,118,38,118z"/>
    <path fill="#FEAD00" d="M92.8,82l7.9,3.4c1.5,0.7,2.2,2.4,1.5,3.9l-3.4,7.8c-0.7,1.5-2.4,2.2-4,1.6L87,95.3c-1.5-0.7-2.2-2.4-1.5-3.9 l3.4-7.8C89.5,82.1,91.3,81.4,92.8,82z"/>
    <path fill="#FEAD00" d="M84.6,70.1l2.8,1.2c1.5,0.7,2.2,2.4,1.5,3.9L87.8,78c-0.7,1.5-2.4,2.2-4,1.6L81,78.3c-1.5-0.7-2.2-2.4-1.5-3.9 l1.2-2.7C81.3,70.2,83.1,69.5,84.6,70.1z"/>
    <path fill="#FEAD00" d="M98.5,32.6l2.1,2.1c1.2,1.2,1.2,3.1,0,4.2L98.5,41c-1.2,1.2-3.1,1.2-4.3,0l-2.1-2.1c-1.2-1.2-1.2-3.1,0-4.2 l2.1-2.1C95.5,31.4,97.4,31.4,98.5,32.6z"/>
    <path fill="#FEAD00" d="M106.8,7.1l2.1,2.1c1.2,1.2,1.2,3.1,0,4.2l-2.1,2.1c-1.2,1.2-3.1,1.2-4.3,0l-2.1-2.1c-1.2-1.2-1.2-3.1,0-4.2 l2.1-2.1C103.7,5.9,105.6,5.9,106.8,7.1z"/>
    <path fill="#FEAD00" d="M101.6,77.2L101.6,77.2c0.8,0.4,1.2,1.3,0.8,2.1l0,0c-0.4,0.8-1.3,1.2-2.1,0.8l0,0c-0.8-0.3-1.2-1.3-0.8-2.1 l0,0C99.9,77.2,100.8,76.8,101.6,77.2z"/>
    <path fill="#FEAD00" d="M104.1,26.5L104.1,26.5c0.8,0.4,1.2,1.3,0.8,2.1l0,0c-0.4,0.8-1.3,1.2-2.1,0.8l0,0c-0.8-0.3-1.2-1.3-0.8-2.1 l0,0C102.4,26.6,103.3,26.2,104.1,26.5z"/>
    <path fill="#FEAD00" d="M93,47.5L93,47.5c0.8,0.4,1.2,1.3,0.8,2.1l0,0c-0.4,0.8-1.3,1.2-2.1,0.8l0,0c-0.8-0.3-1.2-1.3-0.8-2.1l0,0 C91.2,47.5,92.2,47.1,93,47.5z"/>
    <path fill="#FEAD00" d="M68.2,93.6L68.2,93.6c0.8,0.4,1.2,1.3,0.8,2.1l0,0c-0.4,0.8-1.3,1.2-2.1,0.8l0,0c-0.8-0.3-1.2-1.3-0.8-2.1v0 C66.5,93.6,67.4,93.2,68.2,93.6z"/>
    <path fill="#FEAD00" d="M77.7,63.2L77.7,63.2c0.6,0.3,0.9,0.9,0.6,1.5l0,0c-0.3,0.6-0.9,0.9-1.5,0.6l0,0c-0.6-0.3-0.9-0.9-0.6-1.5l0,0 C76.5,63.2,77.2,63,77.7,63.2z"/>
    <path fill="#FEAD00" d="M102.9,47.3L102.9,47.3c0.6,0.3,0.9,0.9,0.6,1.5l0,0c-0.3,0.6-0.9,0.9-1.5,0.6l0,0c-0.6-0.3-0.9-0.9-0.6-1.5 l0,0C101.6,47.3,102.3,47,102.9,47.3z"/>
    <path fill="#FEAD00" d="M97.3,57.5L97.3,57.5c0.6,0.3,0.9,0.9,0.6,1.5l0,0c-0.3,0.6-0.9,0.9-1.5,0.6l0,0c-0.6-0.3-0.9-0.9-0.6-1.5l0,0 C96,57.5,96.7,57.3,97.3,57.5z"/>
    <path fill="#FEAD00" d="M90.6,27.8L90.6,27.8c0.6,0.3,0.9,0.9,0.6,1.5l0,0c-0.3,0.6-0.9,0.9-1.5,0.6l0,0C89,29.7,88.8,29,89,28.4l0,0 C89.3,27.8,90,27.5,90.6,27.8z"/>
    <path fill="#FEAD00" d="M82.4,83.9L82.4,83.9c0.6,0.3,0.9,0.9,0.6,1.5l0,0c-0.3,0.6-0.9,0.9-1.5,0.6l0,0c-0.6-0.3-0.9-0.9-0.6-1.5l0,0 C81.2,83.9,81.8,83.6,82.4,83.9z"/>
    <path fill="#FEAD00" d="M96.6,65.9l1.4-0.7c1.5-0.7,3.3,0,4,1.5l0.6,1.4c0.7,1.5,0,3.3-1.5,4l-1.4,0.7c-1.5,0.7-3.3,0-4-1.5l-0.6-1.4 C94.4,68.3,95.1,66.6,96.6,65.9z"/>
    <path fill="#FEAD00" d="M77,94.9l1.4-0.7c1.5-0.7,3.3,0,4,1.5l0.6,1.4c0.7,1.5,0,3.3-1.5,4l-1.4,0.7c-1.5,0.7-3.3,0-4-1.5l-0.6-1.4 C74.9,97.3,75.5,95.6,77,94.9z"/>
    <path fill="#FEAD00" d="M86.6,56.9L86.6,56.9c1.3-0.6,2.8,0,3.4,1.2l0,0c0.6,1.3,0,2.7-1.2,3.3l0,0c-1.3,0.6-2.8,0-3.3-1.2l0,0 C84.8,59,85.4,57.5,86.6,56.9z"/>
    <path fill="#FEAD00" d="M72,83.8L72,83.8c1.3-0.6,2.8,0,3.4,1.2l0,0c0.6,1.3,0,2.7-1.2,3.3l0,0c-1.3,0.6-2.8,0-3.3-1.2l0,0 C70.2,85.8,70.8,84.4,72,83.8z"/>
    <path fill="#FEAD00" d="M65.4,107.3L65.4,107.3c0.7-1.2,2.2-1.6,3.4-0.9l0,0c1.2,0.7,1.6,2.2,0.9,3.4l0,0c-0.7,1.2-2.2,1.6-3.4,0.9l0,0 C65.1,110.1,64.7,108.5,65.4,107.3z"/>
    <path fill="#FEAD00" d="M96.9,19.4L96.9,19.4c1.3-0.6,2.8,0,3.4,1.2l0,0c0.6,1.3,0,2.7-1.2,3.3l0,0c-1.3,0.6-2.8,0-3.3-1.2l0,0 C95.1,21.4,95.7,19.9,96.9,19.4z"/>
</svg>
