<svg width="105" height="38" viewBox="0 0 105 38" fill="none" xmlns="http://www.w3.org/2000/svg">
    <path d="M43.7731 9.9873H37.7998L48.0664 24.1739L37.7998 37.0539H41.3931H44.3331L51.4264 27.3473L58.4264 37.0539H64.4931L54.2264 24.1739L64.4931 9.9873H58.4264L51.4264 19.8384L43.7731 9.9873Z" fill="#FCFCFC" />
    <path d="M18.3577 25.8535H39.0689C39.0689 25.8535 40.4618 9.61359 26.345 9.61359C18.3577 9.61359 12.4135 13.9065 12.4135 24.2667C12.4135 31.08 17.7073 37.0535 26.345 37.0535C34.9827 37.0535 37.7686 29.7735 37.7686 29.7735H32.6605C32.6605 29.7735 29.0556 32.6669 26.345 32.6669C19.8435 32.6669 18.3577 25.8535 18.3577 25.8535ZM33.2178 20.8136H18.8221C18.8221 20.8136 19.4722 14.467 26.345 14.4669C31.6389 14.4668 33.2178 20.8136 33.2178 20.8136Z" fill="#FCFCFC" fill-rule="evenodd" clip-rule="evenodd" />
    <path d="M6.43999 0H0V31.8266C0 31.8266 0.388313 33.9117 1.49333 35.0933C2.78794 36.4776 3.99343 36.871 5.87999 37.0533C8.34729 37.2916 11.6666 35.6533 11.6666 35.6533V31.3599C11.6666 31.3599 9.51998 32.1999 6.43999 31.8266V0Z" fill="#FCFCFC" />
    <path d="M68.2265 9.9873H74.1998V37.0539H68.2265V9.9873Z" fill="#FEAD00" />
    <path d="M68.2265 1.21222H74.1998V7.37221H68.2265V1.21222Z" fill="#FEAD00" />
    <path d="M91.4667 37.0531C98.941 37.0531 105 30.9941 105 23.5198C105 16.0456 98.941 9.98651 91.4667 9.98651C83.9925 9.98651 77.9334 16.0456 77.9334 23.5198C77.9334 30.9941 83.9925 37.0531 91.4667 37.0531ZM91.5601 32.2932C96.4571 32.2932 100.427 28.3653 100.427 23.5199C100.427 18.6745 96.4571 14.7466 91.5601 14.7466C86.6632 14.7466 82.6935 18.6745 82.6935 23.5199C82.6935 28.3653 86.6632 32.2932 91.5601 32.2932Z" fill="#FEAD00" fill-rule="evenodd" clip-rule="evenodd" />
</svg>
